<?xml version="1.0" encoding="UTF-8" standalone="no"?>
<!-- Created with Inkscape (http://www.inkscape.org/) -->

<svg
   xmlns:dc="http://purl.org/dc/elements/1.1/"
   xmlns:cc="http://creativecommons.org/ns#"
   xmlns:rdf="http://www.w3.org/1999/02/22-rdf-syntax-ns#"
   xmlns:svg="http://www.w3.org/2000/svg"
   xmlns="http://www.w3.org/2000/svg"
   xmlns:sodipodi="http://sodipodi.sourceforge.net/DTD/sodipodi-0.dtd"
   xmlns:inkscape="http://www.inkscape.org/namespaces/inkscape"
   width="800"
   height="600"
   viewBox="0 0 800.00001 600.00001"
   id="svg2"
   version="1.1"
   inkscape:version="0.91 r13725"
   sodipodi:docname="visual_tracking_size.svg">
  <defs
     id="defs4">
    <marker
       inkscape:stockid="Arrow2Mend"
       orient="auto"
       refY="0.0"
       refX="0.0"
       id="Arrow2Mend"
       style="overflow:visible;"
       inkscape:isstock="true">
      <path
         id="path4602"
         style="fill-rule:evenodd;stroke-width:0.625;stroke-linejoin:round;stroke:#f9f9f9;stroke-opacity:1;fill:#f2f2f2;fill-opacity:1"
         d="M 8.7185878,4.0337352 L -2.2072895,0.016013256 L 8.7185884,-4.0017078 C 6.9730900,-1.6296469 6.9831476,1.6157441 8.7185878,4.0337352 z "
         transform="scale(0.6) rotate(180) translate(0,0)" />
    </marker>
    <marker
       inkscape:stockid="Arrow2Mstart"
       orient="auto"
       refY="0.0"
       refX="0.0"
       id="Arrow2Mstart"
       style="overflow:visible"
       inkscape:isstock="true">
      <path
         id="path4599"
         style="fill-rule:evenodd;stroke-width:0.625;stroke-linejoin:round;stroke:#f9f9f9;stroke-opacity:1;fill:#f2f2f2;fill-opacity:1"
         d="M 8.7185878,4.0337352 L -2.2072895,0.016013256 L 8.7185884,-4.0017078 C 6.9730900,-1.6296469 6.9831476,1.6157441 8.7185878,4.0337352 z "
         transform="scale(0.6) translate(0,0)" />
    </marker>
    <marker
       inkscape:stockid="Arrow1Lstart"
       orient="auto"
       refY="0.0"
       refX="0.0"
       id="Arrow1Lstart"
       style="overflow:visible"
       inkscape:isstock="true">
      <path
         id="path4575"
         d="M 0.0,0.0 L 5.0,-5.0 L -12.5,0.0 L 5.0,5.0 L 0.0,0.0 z "
         style="fill-rule:evenodd;stroke:#f9f9f9;stroke-width:1pt;stroke-opacity:1;fill:#f2f2f2;fill-opacity:1"
         transform="scale(0.8) translate(12.5,0)" />
    </marker>
  </defs>
  <sodipodi:namedview
     id="base"
     pagecolor="#ffffff"
     bordercolor="#666666"
     borderopacity="1.0"
     inkscape:pageopacity="0.0"
     inkscape:pageshadow="2"
     inkscape:zoom="1.4"
     inkscape:cx="450.94431"
     inkscape:cy="236.56717"
     inkscape:document-units="px"
     inkscape:current-layer="layer1"
     showgrid="false"
     units="px"
     inkscape:window-width="2560"
     inkscape:window-height="1304"
     inkscape:window-x="0"
     inkscape:window-y="64"
     inkscape:window-maximized="1" />
  <metadata
     id="metadata7">
    <rdf:RDF>
      <cc:Work
         rdf:about="">
        <dc:format>image/svg+xml</dc:format>
        <dc:type
           rdf:resource="http://purl.org/dc/dcmitype/StillImage" />
        <dc:title></dc:title>
      </cc:Work>
    </rdf:RDF>
  </metadata>
  <g
     inkscape:label="Layer 1"
     inkscape:groupmode="layer"
     id="layer1"
     transform="translate(0,-452.36216)">
    <rect
       style="opacity:1;fill:#000000;fill-opacity:1;stroke:none;stroke-width:1.70000005;stroke-miterlimit:4;stroke-dasharray:none;stroke-opacity:1"
       id="rect4136"
       width="800.09332"
       height="600.24945"
       x="4.4595598e-08"
       y="452.33157" />
    <g
       transform="matrix(0.07519708,0.07924872,-0.07924872,0.07519708,426.43307,688.44086)"
       id="g4238"
       style="opacity:0.436">
      <path
         style="fill:#ff4000;fill-rule:evenodd;stroke-width:3.75"
         inkscape:connector-curvature="0"
         d="m 271.33505,360.75732 c 0,0 12.77112,37.85779 27.2442,69.69309 14.47406,31.83633 40.01633,47.32327 43.42224,47.32327 3.40488,0 6.8108,-18.06839 5.95932,-28.39337 -0.8515,-10.32492 -24.69076,-30.97583 16.17701,1.72 40.86682,32.6958 69.81393,46.46271 67.25949,35.27731 4.25741,-27.53384 -43.42121,-85.181 -12.77011,-74.85607 30.65008,10.32492 82.58505,34.41677 50.23202,-3.44199 -32.35306,-37.85779 -65.55755,-55.06668 -37.46091,-54.20618 28.09571,0.86048 55.33988,13.76694 41.71827,-11.18545 -13.62256,-24.95236 -79.16007,-63.75791 -107.25571,-80.1063 -22.13638,11.18546 -65.57764,40.52753 -94.52582,98.17569 z"
         id="path4240" />
      <path
         style="fill:#ffff33;fill-opacity:0.696296;fill-rule:evenodd;stroke-width:12.5;stroke-linejoin:round"
         inkscape:connector-curvature="0"
         d="m 284.05399,339.74301 c 0,0 9.32702,44.94 19.50201,58.50598 10.17499,13.56702 12.71899,11.871 15.263,-6.78299 2.54401,-18.65399 -15.263,-37.30899 15.26199,-16.95801 30.526,20.35001 56.81101,45.78702 41.54901,14.41401 -15.263,-31.37299 -19.50299,-39.004 1.69501,-27.98099 21.198,11.02298 41.54898,19.50198 16.10999,-11.02301 -19.50101,-22.04599 19.50201,-27.982 26.28601,-30.525 16.11099,2.54401 -68.681,-44.94101 -77.16001,-44.94101 -9.328,1.69602 -55.11599,58.50702 -58.50702,65.29102 z"
         id="path4242" />
      <path
         style="fill:#ff0000;fill-rule:evenodd;stroke:#000000;stroke-width:10;stroke-linejoin:round"
         inkscape:connector-curvature="0"
         d="M 17.80632,31.099018 C 96.663322,32.79472 295.92432,65.015625 372.2373,260.88571 345.95132,265.97372 281.51031,328.71973 271.33533,363.48373 77.161322,264.27771 22.04592,107.41172 17.806319,31.099018 Z"
         id="path4244" />
      <path
         style="fill:#7f0000;fill-rule:evenodd;stroke:#000000;stroke-width:10;stroke-linejoin:round"
         inkscape:connector-curvature="0"
         d="m 163.64932,292.25873 c 0,0 3.39099,86.488 3.39099,87.336 0,0.84799 104.29502,48.332 110.23002,50.876 l -5.08701,-67.83401 c -9.327,0.84799 -92.424,-52.57098 -108.534,-70.37799 z"
         id="path4246" />
      <path
         style="fill:#7f0000;fill-rule:evenodd;stroke:#000000;stroke-width:10;stroke-linejoin:round"
         inkscape:connector-curvature="0"
         d="m 304.73349,151.3528 c 0,0 85.53098,3.82004 86.37869,3.84088 0.84775,0.0208 45.7544,105.45125 48.1518,111.44698 l -67.68854,-6.75248 C 362.47681,226.84261 324.68262,171.28806 304.73349,151.3528 Z"
         id="path4248" />
      <path
         style="fill:#7f0000;fill-rule:evenodd;stroke:#000000;stroke-width:10;stroke-linejoin:round"
         inkscape:connector-curvature="0"
         d="m 235.31677,210.16905 c 0,0 14.25998,34.12261 16.66716,39.68585 2.95384,3.74834 77.58904,64.65636 83.06761,68.07418 l -3.17886,-21.68073 c -7.99423,-7.69864 -76.80339,-68.01597 -96.55591,-86.0793 z"
         id="path4250" />
      <path
         style="fill:#7f0000;fill-rule:evenodd;stroke:#000000;stroke-width:10;stroke-linejoin:round"
         inkscape:connector-curvature="0"
         d="m 232.63654,209.39949 -16.76851,24.28023 20.64479,35.73391 85.75397,67.74439 12.3876,-18.54547 -81.99136,-69.24004 -20.02649,-39.97302 z"
         id="path4252" />
      <path
         style="fill:#bfbfbf;fill-rule:evenodd;stroke:#000000;stroke-width:12.5;stroke-linejoin:round"
         inkscape:connector-curvature="0"
         d="m 124.645,131.15401 c -28.829799,39.00399 30.52401,87.336 58.506,52.571 33.91699,-42.39601 -24.589,-83.09601 -58.506,-52.571 z"
         id="path4254" />
      <path
         style="fill:#aeffff;fill-rule:evenodd;stroke:#000000;stroke-width:10;stroke-linejoin:round"
         inkscape:connector-curvature="0"
         d="m 132.276,135.393 c 21.198,-20.35 70.377,4.23999 48.332,40.70099 C 156.01801,207.466 105.991,167.615 132.276,135.393 Z"
         id="path4256" />
      <path
         style="fill:#ffffff;fill-opacity:0.75;fill-rule:evenodd;stroke-width:12.5;stroke-linejoin:round"
         inkscape:connector-curvature="0"
         d="m 148.386,134.502 c -6.86088,4.73755 -24.90051,19.62388 -10.175,37.352 12.71899,3.392 30.52499,-35.656 10.175,-37.352 z"
         id="path4258" />
      <title
         id="title4260">Layer 1</title>
    </g>
    <g
       transform="matrix(0.07519708,0.07924872,-0.07924872,0.07519708,426.43307,619.79109)"
       id="g4262"
       style="opacity:0.491">
      <path
         style="fill:#ff4000;fill-rule:evenodd;stroke-width:3.75"
         inkscape:connector-curvature="0"
         d="m 271.33505,360.75732 c 0,0 12.77112,37.85779 27.2442,69.69309 14.47406,31.83633 40.01633,47.32327 43.42224,47.32327 3.40488,0 6.8108,-18.06839 5.95932,-28.39337 -0.8515,-10.32492 -24.69076,-30.97583 16.17701,1.72 40.86682,32.6958 69.81393,46.46271 67.25949,35.27731 4.25741,-27.53384 -43.42121,-85.181 -12.77011,-74.85607 30.65008,10.32492 82.58505,34.41677 50.23202,-3.44199 -32.35306,-37.85779 -65.55755,-55.06668 -37.46091,-54.20618 28.09571,0.86048 55.33988,13.76694 41.71827,-11.18545 -13.62256,-24.95236 -79.16007,-63.75791 -107.25571,-80.1063 -22.13638,11.18546 -65.57764,40.52753 -94.52582,98.17569 z"
         id="path4264" />
      <path
         style="fill:#ffff33;fill-opacity:0.696296;fill-rule:evenodd;stroke-width:12.5;stroke-linejoin:round"
         inkscape:connector-curvature="0"
         d="m 284.05399,339.74301 c 0,0 9.32702,44.94 19.50201,58.50598 10.17499,13.56702 12.71899,11.871 15.263,-6.78299 2.54401,-18.65399 -15.263,-37.30899 15.26199,-16.95801 30.526,20.35001 56.81101,45.78702 41.54901,14.41401 -15.263,-31.37299 -19.50299,-39.004 1.69501,-27.98099 21.198,11.02298 41.54898,19.50198 16.10999,-11.02301 -19.50101,-22.04599 19.50201,-27.982 26.28601,-30.525 16.11099,2.54401 -68.681,-44.94101 -77.16001,-44.94101 -9.328,1.69602 -55.11599,58.50702 -58.50702,65.29102 z"
         id="path4266" />
      <path
         style="fill:#ff0000;fill-rule:evenodd;stroke:#000000;stroke-width:10;stroke-linejoin:round"
         inkscape:connector-curvature="0"
         d="M 17.80632,31.099018 C 96.663322,32.79472 295.92432,65.015625 372.2373,260.88571 345.95132,265.97372 281.51031,328.71973 271.33533,363.48373 77.161322,264.27771 22.04592,107.41172 17.806319,31.099018 Z"
         id="path4268" />
      <path
         style="fill:#7f0000;fill-rule:evenodd;stroke:#000000;stroke-width:10;stroke-linejoin:round"
         inkscape:connector-curvature="0"
         d="m 163.64932,292.25873 c 0,0 3.39099,86.488 3.39099,87.336 0,0.84799 104.29502,48.332 110.23002,50.876 l -5.08701,-67.83401 c -9.327,0.84799 -92.424,-52.57098 -108.534,-70.37799 z"
         id="path4270" />
      <path
         style="fill:#7f0000;fill-rule:evenodd;stroke:#000000;stroke-width:10;stroke-linejoin:round"
         inkscape:connector-curvature="0"
         d="m 304.73349,151.3528 c 0,0 85.53098,3.82004 86.37869,3.84088 0.84775,0.0208 45.7544,105.45125 48.1518,111.44698 l -67.68854,-6.75248 C 362.47681,226.84261 324.68262,171.28806 304.73349,151.3528 Z"
         id="path4272" />
      <path
         style="fill:#7f0000;fill-rule:evenodd;stroke:#000000;stroke-width:10;stroke-linejoin:round"
         inkscape:connector-curvature="0"
         d="m 235.31677,210.16905 c 0,0 14.25998,34.12261 16.66716,39.68585 2.95384,3.74834 77.58904,64.65636 83.06761,68.07418 l -3.17886,-21.68073 c -7.99423,-7.69864 -76.80339,-68.01597 -96.55591,-86.0793 z"
         id="path4274" />
      <path
         style="fill:#7f0000;fill-rule:evenodd;stroke:#000000;stroke-width:10;stroke-linejoin:round"
         inkscape:connector-curvature="0"
         d="m 232.63654,209.39949 -16.76851,24.28023 20.64479,35.73391 85.75397,67.74439 12.3876,-18.54547 -81.99136,-69.24004 -20.02649,-39.97302 z"
         id="path4276" />
      <path
         style="fill:#bfbfbf;fill-rule:evenodd;stroke:#000000;stroke-width:12.5;stroke-linejoin:round"
         inkscape:connector-curvature="0"
         d="m 124.645,131.15401 c -28.829799,39.00399 30.52401,87.336 58.506,52.571 33.91699,-42.39601 -24.589,-83.09601 -58.506,-52.571 z"
         id="path4278" />
      <path
         style="fill:#aeffff;fill-rule:evenodd;stroke:#000000;stroke-width:10;stroke-linejoin:round"
         inkscape:connector-curvature="0"
         d="m 132.276,135.393 c 21.198,-20.35 70.377,4.23999 48.332,40.70099 C 156.01801,207.466 105.991,167.615 132.276,135.393 Z"
         id="path4280" />
      <path
         style="fill:#ffffff;fill-opacity:0.75;fill-rule:evenodd;stroke-width:12.5;stroke-linejoin:round"
         inkscape:connector-curvature="0"
         d="m 148.386,134.502 c -6.86088,4.73755 -24.90051,19.62388 -10.175,37.352 12.71899,3.392 30.52499,-35.656 10.175,-37.352 z"
         id="path4282" />
      <title
         id="title4284">Layer 1</title>
    </g>
    <g
       transform="matrix(0.07519708,0.07924872,-0.07924872,0.07519708,426.43307,544.07026)"
       id="g4286"
       style="opacity:0.507">
      <path
         style="fill:#ff4000;fill-rule:evenodd;stroke-width:3.75"
         inkscape:connector-curvature="0"
         d="m 271.33505,360.75732 c 0,0 12.77112,37.85779 27.2442,69.69309 14.47406,31.83633 40.01633,47.32327 43.42224,47.32327 3.40488,0 6.8108,-18.06839 5.95932,-28.39337 -0.8515,-10.32492 -24.69076,-30.97583 16.17701,1.72 40.86682,32.6958 69.81393,46.46271 67.25949,35.27731 4.25741,-27.53384 -43.42121,-85.181 -12.77011,-74.85607 30.65008,10.32492 82.58505,34.41677 50.23202,-3.44199 -32.35306,-37.85779 -65.55755,-55.06668 -37.46091,-54.20618 28.09571,0.86048 55.33988,13.76694 41.71827,-11.18545 -13.62256,-24.95236 -79.16007,-63.75791 -107.25571,-80.1063 -22.13638,11.18546 -65.57764,40.52753 -94.52582,98.17569 z"
         id="path4288" />
      <path
         style="fill:#ffff33;fill-opacity:0.696296;fill-rule:evenodd;stroke-width:12.5;stroke-linejoin:round"
         inkscape:connector-curvature="0"
         d="m 284.05399,339.74301 c 0,0 9.32702,44.94 19.50201,58.50598 10.17499,13.56702 12.71899,11.871 15.263,-6.78299 2.54401,-18.65399 -15.263,-37.30899 15.26199,-16.95801 30.526,20.35001 56.81101,45.78702 41.54901,14.41401 -15.263,-31.37299 -19.50299,-39.004 1.69501,-27.98099 21.198,11.02298 41.54898,19.50198 16.10999,-11.02301 -19.50101,-22.04599 19.50201,-27.982 26.28601,-30.525 16.11099,2.54401 -68.681,-44.94101 -77.16001,-44.94101 -9.328,1.69602 -55.11599,58.50702 -58.50702,65.29102 z"
         id="path4290" />
      <path
         style="fill:#ff0000;fill-rule:evenodd;stroke:#000000;stroke-width:10;stroke-linejoin:round"
         inkscape:connector-curvature="0"
         d="M 17.80632,31.099018 C 96.663322,32.79472 295.92432,65.015625 372.2373,260.88571 345.95132,265.97372 281.51031,328.71973 271.33533,363.48373 77.161322,264.27771 22.04592,107.41172 17.806319,31.099018 Z"
         id="path4292" />
      <path
         style="fill:#7f0000;fill-rule:evenodd;stroke:#000000;stroke-width:10;stroke-linejoin:round"
         inkscape:connector-curvature="0"
         d="m 163.64932,292.25873 c 0,0 3.39099,86.488 3.39099,87.336 0,0.84799 104.29502,48.332 110.23002,50.876 l -5.08701,-67.83401 c -9.327,0.84799 -92.424,-52.57098 -108.534,-70.37799 z"
         id="path4294" />
      <path
         style="fill:#7f0000;fill-rule:evenodd;stroke:#000000;stroke-width:10;stroke-linejoin:round"
         inkscape:connector-curvature="0"
         d="m 304.73349,151.3528 c 0,0 85.53098,3.82004 86.37869,3.84088 0.84775,0.0208 45.7544,105.45125 48.1518,111.44698 l -67.68854,-6.75248 C 362.47681,226.84261 324.68262,171.28806 304.73349,151.3528 Z"
         id="path4296" />
      <path
         style="fill:#7f0000;fill-rule:evenodd;stroke:#000000;stroke-width:10;stroke-linejoin:round"
         inkscape:connector-curvature="0"
         d="m 235.31677,210.16905 c 0,0 14.25998,34.12261 16.66716,39.68585 2.95384,3.74834 77.58904,64.65636 83.06761,68.07418 l -3.17886,-21.68073 c -7.99423,-7.69864 -76.80339,-68.01597 -96.55591,-86.0793 z"
         id="path4298" />
      <path
         style="fill:#7f0000;fill-rule:evenodd;stroke:#000000;stroke-width:10;stroke-linejoin:round"
         inkscape:connector-curvature="0"
         d="m 232.63654,209.39949 -16.76851,24.28023 20.64479,35.73391 85.75397,67.74439 12.3876,-18.54547 -81.99136,-69.24004 -20.02649,-39.97302 z"
         id="path4300" />
      <path
         style="fill:#bfbfbf;fill-rule:evenodd;stroke:#000000;stroke-width:12.5;stroke-linejoin:round"
         inkscape:connector-curvature="0"
         d="m 124.645,131.15401 c -28.829799,39.00399 30.52401,87.336 58.506,52.571 33.91699,-42.39601 -24.589,-83.09601 -58.506,-52.571 z"
         id="path4302" />
      <path
         style="fill:#aeffff;fill-rule:evenodd;stroke:#000000;stroke-width:10;stroke-linejoin:round"
         inkscape:connector-curvature="0"
         d="m 132.276,135.393 c 21.198,-20.35 70.377,4.23999 48.332,40.70099 C 156.01801,207.466 105.991,167.615 132.276,135.393 Z"
         id="path4304" />
      <path
         style="fill:#ffffff;fill-opacity:0.75;fill-rule:evenodd;stroke-width:12.5;stroke-linejoin:round"
         inkscape:connector-curvature="0"
         d="m 148.386,134.502 c -6.86088,4.73755 -24.90051,19.62388 -10.175,37.352 12.71899,3.392 30.52499,-35.656 10.175,-37.352 z"
         id="path4306" />
      <title
         id="title4308">Layer 1</title>
    </g>
    <g
       transform="matrix(0.07519708,0.07924872,-0.07924872,0.07519708,426.43307,465.27836)"
       id="g4310"
       style="opacity:0.562">
      <path
         style="fill:#ff4000;fill-rule:evenodd;stroke-width:3.75"
         inkscape:connector-curvature="0"
         d="m 271.33505,360.75732 c 0,0 12.77112,37.85779 27.2442,69.69309 14.47406,31.83633 40.01633,47.32327 43.42224,47.32327 3.40488,0 6.8108,-18.06839 5.95932,-28.39337 -0.8515,-10.32492 -24.69076,-30.97583 16.17701,1.72 40.86682,32.6958 69.81393,46.46271 67.25949,35.27731 4.25741,-27.53384 -43.42121,-85.181 -12.77011,-74.85607 30.65008,10.32492 82.58505,34.41677 50.23202,-3.44199 -32.35306,-37.85779 -65.55755,-55.06668 -37.46091,-54.20618 28.09571,0.86048 55.33988,13.76694 41.71827,-11.18545 -13.62256,-24.95236 -79.16007,-63.75791 -107.25571,-80.1063 -22.13638,11.18546 -65.57764,40.52753 -94.52582,98.17569 z"
         id="path4312" />
      <path
         style="fill:#ffff33;fill-opacity:0.696296;fill-rule:evenodd;stroke-width:12.5;stroke-linejoin:round"
         inkscape:connector-curvature="0"
         d="m 284.05399,339.74301 c 0,0 9.32702,44.94 19.50201,58.50598 10.17499,13.56702 12.71899,11.871 15.263,-6.78299 2.54401,-18.65399 -15.263,-37.30899 15.26199,-16.95801 30.526,20.35001 56.81101,45.78702 41.54901,14.41401 -15.263,-31.37299 -19.50299,-39.004 1.69501,-27.98099 21.198,11.02298 41.54898,19.50198 16.10999,-11.02301 -19.50101,-22.04599 19.50201,-27.982 26.28601,-30.525 16.11099,2.54401 -68.681,-44.94101 -77.16001,-44.94101 -9.328,1.69602 -55.11599,58.50702 -58.50702,65.29102 z"
         id="path4314" />
      <path
         style="fill:#ff0000;fill-rule:evenodd;stroke:#000000;stroke-width:10;stroke-linejoin:round"
         inkscape:connector-curvature="0"
         d="M 17.80632,31.099018 C 96.663322,32.79472 295.92432,65.015625 372.2373,260.88571 345.95132,265.97372 281.51031,328.71973 271.33533,363.48373 77.161322,264.27771 22.04592,107.41172 17.806319,31.099018 Z"
         id="path4316" />
      <path
         style="fill:#7f0000;fill-rule:evenodd;stroke:#000000;stroke-width:10;stroke-linejoin:round"
         inkscape:connector-curvature="0"
         d="m 163.64932,292.25873 c 0,0 3.39099,86.488 3.39099,87.336 0,0.84799 104.29502,48.332 110.23002,50.876 l -5.08701,-67.83401 c -9.327,0.84799 -92.424,-52.57098 -108.534,-70.37799 z"
         id="path4318" />
      <path
         style="fill:#7f0000;fill-rule:evenodd;stroke:#000000;stroke-width:10;stroke-linejoin:round"
         inkscape:connector-curvature="0"
         d="m 304.73349,151.3528 c 0,0 85.53098,3.82004 86.37869,3.84088 0.84775,0.0208 45.7544,105.45125 48.1518,111.44698 l -67.68854,-6.75248 C 362.47681,226.84261 324.68262,171.28806 304.73349,151.3528 Z"
         id="path4320" />
      <path
         style="fill:#7f0000;fill-rule:evenodd;stroke:#000000;stroke-width:10;stroke-linejoin:round"
         inkscape:connector-curvature="0"
         d="m 235.31677,210.16905 c 0,0 14.25998,34.12261 16.66716,39.68585 2.95384,3.74834 77.58904,64.65636 83.06761,68.07418 l -3.17886,-21.68073 c -7.99423,-7.69864 -76.80339,-68.01597 -96.55591,-86.0793 z"
         id="path4322" />
      <path
         style="fill:#7f0000;fill-rule:evenodd;stroke:#000000;stroke-width:10;stroke-linejoin:round"
         inkscape:connector-curvature="0"
         d="m 232.63654,209.39949 -16.76851,24.28023 20.64479,35.73391 85.75397,67.74439 12.3876,-18.54547 -81.99136,-69.24004 -20.02649,-39.97302 z"
         id="path4324" />
      <path
         style="fill:#bfbfbf;fill-rule:evenodd;stroke:#000000;stroke-width:12.5;stroke-linejoin:round"
         inkscape:connector-curvature="0"
         d="m 124.645,131.15401 c -28.829799,39.00399 30.52401,87.336 58.506,52.571 33.91699,-42.39601 -24.589,-83.09601 -58.506,-52.571 z"
         id="path4326" />
      <path
         style="fill:#aeffff;fill-rule:evenodd;stroke:#000000;stroke-width:10;stroke-linejoin:round"
         inkscape:connector-curvature="0"
         d="m 132.276,135.393 c 21.198,-20.35 70.377,4.23999 48.332,40.70099 C 156.01801,207.466 105.991,167.615 132.276,135.393 Z"
         id="path4328" />
      <path
         style="fill:#ffffff;fill-opacity:0.75;fill-rule:evenodd;stroke-width:12.5;stroke-linejoin:round"
         inkscape:connector-curvature="0"
         d="m 148.386,134.502 c -6.86088,4.73755 -24.90051,19.62388 -10.175,37.352 12.71899,3.392 30.52499,-35.656 10.175,-37.352 z"
         id="path4330" />
      <title
         id="title4332">Layer 1</title>
    </g>
    <g
       transform="matrix(0.02330081,-0.10673346,0.10673346,0.02330081,343.67404,528.0299)"
       id="g4334"
       style="opacity:0.583">
      <path
         style="fill:#ff4000;fill-rule:evenodd;stroke-width:3.75"
         inkscape:connector-curvature="0"
         d="m 271.33505,360.75732 c 0,0 12.77112,37.85779 27.2442,69.69309 14.47406,31.83633 40.01633,47.32327 43.42224,47.32327 3.40488,0 6.8108,-18.06839 5.95932,-28.39337 -0.8515,-10.32492 -24.69076,-30.97583 16.17701,1.72 40.86682,32.6958 69.81393,46.46271 67.25949,35.27731 4.25741,-27.53384 -43.42121,-85.181 -12.77011,-74.85607 30.65008,10.32492 82.58505,34.41677 50.23202,-3.44199 -32.35306,-37.85779 -65.55755,-55.06668 -37.46091,-54.20618 28.09571,0.86048 55.33988,13.76694 41.71827,-11.18545 -13.62256,-24.95236 -79.16007,-63.75791 -107.25571,-80.1063 -22.13638,11.18546 -65.57764,40.52753 -94.52582,98.17569 z"
         id="path4336" />
      <path
         style="fill:#ffff33;fill-opacity:0.696296;fill-rule:evenodd;stroke-width:12.5;stroke-linejoin:round"
         inkscape:connector-curvature="0"
         d="m 284.05399,339.74301 c 0,0 9.32702,44.94 19.50201,58.50598 10.17499,13.56702 12.71899,11.871 15.263,-6.78299 2.54401,-18.65399 -15.263,-37.30899 15.26199,-16.95801 30.526,20.35001 56.81101,45.78702 41.54901,14.41401 -15.263,-31.37299 -19.50299,-39.004 1.69501,-27.98099 21.198,11.02298 41.54898,19.50198 16.10999,-11.02301 -19.50101,-22.04599 19.50201,-27.982 26.28601,-30.525 16.11099,2.54401 -68.681,-44.94101 -77.16001,-44.94101 -9.328,1.69602 -55.11599,58.50702 -58.50702,65.29102 z"
         id="path4338" />
      <path
         style="fill:#ff0000;fill-rule:evenodd;stroke:#000000;stroke-width:10;stroke-linejoin:round"
         inkscape:connector-curvature="0"
         d="M 17.80632,31.099018 C 96.663322,32.79472 295.92432,65.015625 372.2373,260.88571 345.95132,265.97372 281.51031,328.71973 271.33533,363.48373 77.161322,264.27771 22.04592,107.41172 17.806319,31.099018 Z"
         id="path4340" />
      <path
         style="fill:#7f0000;fill-rule:evenodd;stroke:#000000;stroke-width:10;stroke-linejoin:round"
         inkscape:connector-curvature="0"
         d="m 163.64932,292.25873 c 0,0 3.39099,86.488 3.39099,87.336 0,0.84799 104.29502,48.332 110.23002,50.876 l -5.08701,-67.83401 c -9.327,0.84799 -92.424,-52.57098 -108.534,-70.37799 z"
         id="path4342" />
      <path
         style="fill:#7f0000;fill-rule:evenodd;stroke:#000000;stroke-width:10;stroke-linejoin:round"
         inkscape:connector-curvature="0"
         d="m 304.73349,151.3528 c 0,0 85.53098,3.82004 86.37869,3.84088 0.84775,0.0208 45.7544,105.45125 48.1518,111.44698 l -67.68854,-6.75248 C 362.47681,226.84261 324.68262,171.28806 304.73349,151.3528 Z"
         id="path4344" />
      <path
         style="fill:#7f0000;fill-rule:evenodd;stroke:#000000;stroke-width:10;stroke-linejoin:round"
         inkscape:connector-curvature="0"
         d="m 235.31677,210.16905 c 0,0 14.25998,34.12261 16.66716,39.68585 2.95384,3.74834 77.58904,64.65636 83.06761,68.07418 l -3.17886,-21.68073 c -7.99423,-7.69864 -76.80339,-68.01597 -96.55591,-86.0793 z"
         id="path4346" />
      <path
         style="fill:#7f0000;fill-rule:evenodd;stroke:#000000;stroke-width:10;stroke-linejoin:round"
         inkscape:connector-curvature="0"
         d="m 232.63654,209.39949 -16.76851,24.28023 20.64479,35.73391 85.75397,67.74439 12.3876,-18.54547 -81.99136,-69.24004 -20.02649,-39.97302 z"
         id="path4348" />
      <path
         style="fill:#bfbfbf;fill-rule:evenodd;stroke:#000000;stroke-width:12.5;stroke-linejoin:round"
         inkscape:connector-curvature="0"
         d="m 124.645,131.15401 c -28.829799,39.00399 30.52401,87.336 58.506,52.571 33.91699,-42.39601 -24.589,-83.09601 -58.506,-52.571 z"
         id="path4350" />
      <path
         style="fill:#aeffff;fill-rule:evenodd;stroke:#000000;stroke-width:10;stroke-linejoin:round"
         inkscape:connector-curvature="0"
         d="m 132.276,135.393 c 21.198,-20.35 70.377,4.23999 48.332,40.70099 C 156.01801,207.466 105.991,167.615 132.276,135.393 Z"
         id="path4352" />
      <path
         style="fill:#ffffff;fill-opacity:0.75;fill-rule:evenodd;stroke-width:12.5;stroke-linejoin:round"
         inkscape:connector-curvature="0"
         d="m 148.386,134.502 c -6.86088,4.73755 -24.90051,19.62388 -10.175,37.352 12.71899,3.392 30.52499,-35.656 10.175,-37.352 z"
         id="path4354" />
      <title
         id="title4356">Layer 1</title>
    </g>
    <g
       transform="matrix(0.02330081,-0.10673346,0.10673346,0.02330081,275.44061,571.15188)"
       id="g4358"
       style="opacity:0.614">
      <path
         style="fill:#ff4000;fill-rule:evenodd;stroke-width:3.75"
         inkscape:connector-curvature="0"
         d="m 271.33505,360.75732 c 0,0 12.77112,37.85779 27.2442,69.69309 14.47406,31.83633 40.01633,47.32327 43.42224,47.32327 3.40488,0 6.8108,-18.06839 5.95932,-28.39337 -0.8515,-10.32492 -24.69076,-30.97583 16.17701,1.72 40.86682,32.6958 69.81393,46.46271 67.25949,35.27731 4.25741,-27.53384 -43.42121,-85.181 -12.77011,-74.85607 30.65008,10.32492 82.58505,34.41677 50.23202,-3.44199 -32.35306,-37.85779 -65.55755,-55.06668 -37.46091,-54.20618 28.09571,0.86048 55.33988,13.76694 41.71827,-11.18545 -13.62256,-24.95236 -79.16007,-63.75791 -107.25571,-80.1063 -22.13638,11.18546 -65.57764,40.52753 -94.52582,98.17569 z"
         id="path4360" />
      <path
         style="fill:#ffff33;fill-opacity:0.696296;fill-rule:evenodd;stroke-width:12.5;stroke-linejoin:round"
         inkscape:connector-curvature="0"
         d="m 284.05399,339.74301 c 0,0 9.32702,44.94 19.50201,58.50598 10.17499,13.56702 12.71899,11.871 15.263,-6.78299 2.54401,-18.65399 -15.263,-37.30899 15.26199,-16.95801 30.526,20.35001 56.81101,45.78702 41.54901,14.41401 -15.263,-31.37299 -19.50299,-39.004 1.69501,-27.98099 21.198,11.02298 41.54898,19.50198 16.10999,-11.02301 -19.50101,-22.04599 19.50201,-27.982 26.28601,-30.525 16.11099,2.54401 -68.681,-44.94101 -77.16001,-44.94101 -9.328,1.69602 -55.11599,58.50702 -58.50702,65.29102 z"
         id="path4362" />
      <path
         style="fill:#ff0000;fill-rule:evenodd;stroke:#000000;stroke-width:10;stroke-linejoin:round"
         inkscape:connector-curvature="0"
         d="M 17.80632,31.099018 C 96.663322,32.79472 295.92432,65.015625 372.2373,260.88571 345.95132,265.97372 281.51031,328.71973 271.33533,363.48373 77.161322,264.27771 22.04592,107.41172 17.806319,31.099018 Z"
         id="path4364" />
      <path
         style="fill:#7f0000;fill-rule:evenodd;stroke:#000000;stroke-width:10;stroke-linejoin:round"
         inkscape:connector-curvature="0"
         d="m 163.64932,292.25873 c 0,0 3.39099,86.488 3.39099,87.336 0,0.84799 104.29502,48.332 110.23002,50.876 l -5.08701,-67.83401 c -9.327,0.84799 -92.424,-52.57098 -108.534,-70.37799 z"
         id="path4366" />
      <path
         style="fill:#7f0000;fill-rule:evenodd;stroke:#000000;stroke-width:10;stroke-linejoin:round"
         inkscape:connector-curvature="0"
         d="m 304.73349,151.3528 c 0,0 85.53098,3.82004 86.37869,3.84088 0.84775,0.0208 45.7544,105.45125 48.1518,111.44698 l -67.68854,-6.75248 C 362.47681,226.84261 324.68262,171.28806 304.73349,151.3528 Z"
         id="path4368" />
      <path
         style="fill:#7f0000;fill-rule:evenodd;stroke:#000000;stroke-width:10;stroke-linejoin:round"
         inkscape:connector-curvature="0"
         d="m 235.31677,210.16905 c 0,0 14.25998,34.12261 16.66716,39.68585 2.95384,3.74834 77.58904,64.65636 83.06761,68.07418 l -3.17886,-21.68073 c -7.99423,-7.69864 -76.80339,-68.01597 -96.55591,-86.0793 z"
         id="path4370" />
      <path
         style="fill:#7f0000;fill-rule:evenodd;stroke:#000000;stroke-width:10;stroke-linejoin:round"
         inkscape:connector-curvature="0"
         d="m 232.63654,209.39949 -16.76851,24.28023 20.64479,35.73391 85.75397,67.74439 12.3876,-18.54547 -81.99136,-69.24004 -20.02649,-39.97302 z"
         id="path4372" />
      <path
         style="fill:#bfbfbf;fill-rule:evenodd;stroke:#000000;stroke-width:12.5;stroke-linejoin:round"
         inkscape:connector-curvature="0"
         d="m 124.645,131.15401 c -28.829799,39.00399 30.52401,87.336 58.506,52.571 33.91699,-42.39601 -24.589,-83.09601 -58.506,-52.571 z"
         id="path4374" />
      <path
         style="fill:#aeffff;fill-rule:evenodd;stroke:#000000;stroke-width:10;stroke-linejoin:round"
         inkscape:connector-curvature="0"
         d="m 132.276,135.393 c 21.198,-20.35 70.377,4.23999 48.332,40.70099 C 156.01801,207.466 105.991,167.615 132.276,135.393 Z"
         id="path4376" />
      <path
         style="fill:#ffffff;fill-opacity:0.75;fill-rule:evenodd;stroke-width:12.5;stroke-linejoin:round"
         inkscape:connector-curvature="0"
         d="m 148.386,134.502 c -6.86088,4.73755 -24.90051,19.62388 -10.175,37.352 12.71899,3.392 30.52499,-35.656 10.175,-37.352 z"
         id="path4378" />
      <title
         id="title4380">Layer 1</title>
    </g>
    <g
       transform="matrix(0.02330081,-0.10673346,0.10673346,0.02330081,211.21388,617.18561)"
       id="g4382"
       style="opacity:0.671">
      <path
         style="fill:#ff4000;fill-rule:evenodd;stroke-width:3.75"
         inkscape:connector-curvature="0"
         d="m 271.33505,360.75732 c 0,0 12.77112,37.85779 27.2442,69.69309 14.47406,31.83633 40.01633,47.32327 43.42224,47.32327 3.40488,0 6.8108,-18.06839 5.95932,-28.39337 -0.8515,-10.32492 -24.69076,-30.97583 16.17701,1.72 40.86682,32.6958 69.81393,46.46271 67.25949,35.27731 4.25741,-27.53384 -43.42121,-85.181 -12.77011,-74.85607 30.65008,10.32492 82.58505,34.41677 50.23202,-3.44199 -32.35306,-37.85779 -65.55755,-55.06668 -37.46091,-54.20618 28.09571,0.86048 55.33988,13.76694 41.71827,-11.18545 -13.62256,-24.95236 -79.16007,-63.75791 -107.25571,-80.1063 -22.13638,11.18546 -65.57764,40.52753 -94.52582,98.17569 z"
         id="path4384" />
      <path
         style="fill:#ffff33;fill-opacity:0.696296;fill-rule:evenodd;stroke-width:12.5;stroke-linejoin:round"
         inkscape:connector-curvature="0"
         d="m 284.05399,339.74301 c 0,0 9.32702,44.94 19.50201,58.50598 10.17499,13.56702 12.71899,11.871 15.263,-6.78299 2.54401,-18.65399 -15.263,-37.30899 15.26199,-16.95801 30.526,20.35001 56.81101,45.78702 41.54901,14.41401 -15.263,-31.37299 -19.50299,-39.004 1.69501,-27.98099 21.198,11.02298 41.54898,19.50198 16.10999,-11.02301 -19.50101,-22.04599 19.50201,-27.982 26.28601,-30.525 16.11099,2.54401 -68.681,-44.94101 -77.16001,-44.94101 -9.328,1.69602 -55.11599,58.50702 -58.50702,65.29102 z"
         id="path4386" />
      <path
         style="fill:#ff0000;fill-rule:evenodd;stroke:#000000;stroke-width:10;stroke-linejoin:round"
         inkscape:connector-curvature="0"
         d="M 17.80632,31.099018 C 96.663322,32.79472 295.92432,65.015625 372.2373,260.88571 345.95132,265.97372 281.51031,328.71973 271.33533,363.48373 77.161322,264.27771 22.04592,107.41172 17.806319,31.099018 Z"
         id="path4388" />
      <path
         style="fill:#7f0000;fill-rule:evenodd;stroke:#000000;stroke-width:10;stroke-linejoin:round"
         inkscape:connector-curvature="0"
         d="m 163.64932,292.25873 c 0,0 3.39099,86.488 3.39099,87.336 0,0.84799 104.29502,48.332 110.23002,50.876 l -5.08701,-67.83401 c -9.327,0.84799 -92.424,-52.57098 -108.534,-70.37799 z"
         id="path4390" />
      <path
         style="fill:#7f0000;fill-rule:evenodd;stroke:#000000;stroke-width:10;stroke-linejoin:round"
         inkscape:connector-curvature="0"
         d="m 304.73349,151.3528 c 0,0 85.53098,3.82004 86.37869,3.84088 0.84775,0.0208 45.7544,105.45125 48.1518,111.44698 l -67.68854,-6.75248 C 362.47681,226.84261 324.68262,171.28806 304.73349,151.3528 Z"
         id="path4392" />
      <path
         style="fill:#7f0000;fill-rule:evenodd;stroke:#000000;stroke-width:10;stroke-linejoin:round"
         inkscape:connector-curvature="0"
         d="m 235.31677,210.16905 c 0,0 14.25998,34.12261 16.66716,39.68585 2.95384,3.74834 77.58904,64.65636 83.06761,68.07418 l -3.17886,-21.68073 c -7.99423,-7.69864 -76.80339,-68.01597 -96.55591,-86.0793 z"
         id="path4394" />
      <path
         style="fill:#7f0000;fill-rule:evenodd;stroke:#000000;stroke-width:10;stroke-linejoin:round"
         inkscape:connector-curvature="0"
         d="m 232.63654,209.39949 -16.76851,24.28023 20.64479,35.73391 85.75397,67.74439 12.3876,-18.54547 -81.99136,-69.24004 -20.02649,-39.97302 z"
         id="path4396" />
      <path
         style="fill:#bfbfbf;fill-rule:evenodd;stroke:#000000;stroke-width:12.5;stroke-linejoin:round"
         inkscape:connector-curvature="0"
         d="m 124.645,131.15401 c -28.829799,39.00399 30.52401,87.336 58.506,52.571 33.91699,-42.39601 -24.589,-83.09601 -58.506,-52.571 z"
         id="path4398" />
      <path
         style="fill:#aeffff;fill-rule:evenodd;stroke:#000000;stroke-width:10;stroke-linejoin:round"
         inkscape:connector-curvature="0"
         d="m 132.276,135.393 c 21.198,-20.35 70.377,4.23999 48.332,40.70099 C 156.01801,207.466 105.991,167.615 132.276,135.393 Z"
         id="path4400" />
      <path
         style="fill:#ffffff;fill-opacity:0.75;fill-rule:evenodd;stroke-width:12.5;stroke-linejoin:round"
         inkscape:connector-curvature="0"
         d="m 148.386,134.502 c -6.86088,4.73755 -24.90051,19.62388 -10.175,37.352 12.71899,3.392 30.52499,-35.656 10.175,-37.352 z"
         id="path4402" />
      <title
         id="title4404">Layer 1</title>
    </g>
    <g
       transform="matrix(0.02330081,-0.10673346,0.10673346,0.02330081,149.28303,655.56181)"
       id="g4406"
       style="opacity:0.711">
      <path
         style="fill:#ff4000;fill-rule:evenodd;stroke-width:3.75"
         inkscape:connector-curvature="0"
         d="m 271.33505,360.75732 c 0,0 12.77112,37.85779 27.2442,69.69309 14.47406,31.83633 40.01633,47.32327 43.42224,47.32327 3.40488,0 6.8108,-18.06839 5.95932,-28.39337 -0.8515,-10.32492 -24.69076,-30.97583 16.17701,1.72 40.86682,32.6958 69.81393,46.46271 67.25949,35.27731 4.25741,-27.53384 -43.42121,-85.181 -12.77011,-74.85607 30.65008,10.32492 82.58505,34.41677 50.23202,-3.44199 -32.35306,-37.85779 -65.55755,-55.06668 -37.46091,-54.20618 28.09571,0.86048 55.33988,13.76694 41.71827,-11.18545 -13.62256,-24.95236 -79.16007,-63.75791 -107.25571,-80.1063 -22.13638,11.18546 -65.57764,40.52753 -94.52582,98.17569 z"
         id="path4408" />
      <path
         style="fill:#ffff33;fill-opacity:0.696296;fill-rule:evenodd;stroke-width:12.5;stroke-linejoin:round"
         inkscape:connector-curvature="0"
         d="m 284.05399,339.74301 c 0,0 9.32702,44.94 19.50201,58.50598 10.17499,13.56702 12.71899,11.871 15.263,-6.78299 2.54401,-18.65399 -15.263,-37.30899 15.26199,-16.95801 30.526,20.35001 56.81101,45.78702 41.54901,14.41401 -15.263,-31.37299 -19.50299,-39.004 1.69501,-27.98099 21.198,11.02298 41.54898,19.50198 16.10999,-11.02301 -19.50101,-22.04599 19.50201,-27.982 26.28601,-30.525 16.11099,2.54401 -68.681,-44.94101 -77.16001,-44.94101 -9.328,1.69602 -55.11599,58.50702 -58.50702,65.29102 z"
         id="path4410" />
      <path
         style="fill:#ff0000;fill-rule:evenodd;stroke:#000000;stroke-width:10;stroke-linejoin:round"
         inkscape:connector-curvature="0"
         d="M 17.80632,31.099018 C 96.663322,32.79472 295.92432,65.015625 372.2373,260.88571 345.95132,265.97372 281.51031,328.71973 271.33533,363.48373 77.161322,264.27771 22.04592,107.41172 17.806319,31.099018 Z"
         id="path4412" />
      <path
         style="fill:#7f0000;fill-rule:evenodd;stroke:#000000;stroke-width:10;stroke-linejoin:round"
         inkscape:connector-curvature="0"
         d="m 163.64932,292.25873 c 0,0 3.39099,86.488 3.39099,87.336 0,0.84799 104.29502,48.332 110.23002,50.876 l -5.08701,-67.83401 c -9.327,0.84799 -92.424,-52.57098 -108.534,-70.37799 z"
         id="path4414" />
      <path
         style="fill:#7f0000;fill-rule:evenodd;stroke:#000000;stroke-width:10;stroke-linejoin:round"
         inkscape:connector-curvature="0"
         d="m 304.73349,151.3528 c 0,0 85.53098,3.82004 86.37869,3.84088 0.84775,0.0208 45.7544,105.45125 48.1518,111.44698 l -67.68854,-6.75248 C 362.47681,226.84261 324.68262,171.28806 304.73349,151.3528 Z"
         id="path4416" />
      <path
         style="fill:#7f0000;fill-rule:evenodd;stroke:#000000;stroke-width:10;stroke-linejoin:round"
         inkscape:connector-curvature="0"
         d="m 235.31677,210.16905 c 0,0 14.25998,34.12261 16.66716,39.68585 2.95384,3.74834 77.58904,64.65636 83.06761,68.07418 l -3.17886,-21.68073 c -7.99423,-7.69864 -76.80339,-68.01597 -96.55591,-86.0793 z"
         id="path4418" />
      <path
         style="fill:#7f0000;fill-rule:evenodd;stroke:#000000;stroke-width:10;stroke-linejoin:round"
         inkscape:connector-curvature="0"
         d="m 232.63654,209.39949 -16.76851,24.28023 20.64479,35.73391 85.75397,67.74439 12.3876,-18.54547 -81.99136,-69.24004 -20.02649,-39.97302 z"
         id="path4420" />
      <path
         style="fill:#bfbfbf;fill-rule:evenodd;stroke:#000000;stroke-width:12.5;stroke-linejoin:round"
         inkscape:connector-curvature="0"
         d="m 124.645,131.15401 c -28.829799,39.00399 30.52401,87.336 58.506,52.571 33.91699,-42.39601 -24.589,-83.09601 -58.506,-52.571 z"
         id="path4422" />
      <path
         style="fill:#aeffff;fill-rule:evenodd;stroke:#000000;stroke-width:10;stroke-linejoin:round"
         inkscape:connector-curvature="0"
         d="m 132.276,135.393 c 21.198,-20.35 70.377,4.23999 48.332,40.70099 C 156.01801,207.466 105.991,167.615 132.276,135.393 Z"
         id="path4424" />
      <path
         style="fill:#ffffff;fill-opacity:0.75;fill-rule:evenodd;stroke-width:12.5;stroke-linejoin:round"
         inkscape:connector-curvature="0"
         d="m 148.386,134.502 c -6.86088,4.73755 -24.90051,19.62388 -10.175,37.352 12.71899,3.392 30.52499,-35.656 10.175,-37.352 z"
         id="path4426" />
      <title
         id="title4428">Layer 1</title>
    </g>
    <g
       transform="matrix(0.02330081,-0.10673346,0.10673346,0.02330081,83.604336,702.41967)"
       id="g4430"
       style="opacity:0.754">
      <path
         style="fill:#ff4000;fill-rule:evenodd;stroke-width:3.75"
         inkscape:connector-curvature="0"
         d="m 271.33505,360.75732 c 0,0 12.77112,37.85779 27.2442,69.69309 14.47406,31.83633 40.01633,47.32327 43.42224,47.32327 3.40488,0 6.8108,-18.06839 5.95932,-28.39337 -0.8515,-10.32492 -24.69076,-30.97583 16.17701,1.72 40.86682,32.6958 69.81393,46.46271 67.25949,35.27731 4.25741,-27.53384 -43.42121,-85.181 -12.77011,-74.85607 30.65008,10.32492 82.58505,34.41677 50.23202,-3.44199 -32.35306,-37.85779 -65.55755,-55.06668 -37.46091,-54.20618 28.09571,0.86048 55.33988,13.76694 41.71827,-11.18545 -13.62256,-24.95236 -79.16007,-63.75791 -107.25571,-80.1063 -22.13638,11.18546 -65.57764,40.52753 -94.52582,98.17569 z"
         id="path4432" />
      <path
         style="fill:#ffff33;fill-opacity:0.696296;fill-rule:evenodd;stroke-width:12.5;stroke-linejoin:round"
         inkscape:connector-curvature="0"
         d="m 284.05399,339.74301 c 0,0 9.32702,44.94 19.50201,58.50598 10.17499,13.56702 12.71899,11.871 15.263,-6.78299 2.54401,-18.65399 -15.263,-37.30899 15.26199,-16.95801 30.526,20.35001 56.81101,45.78702 41.54901,14.41401 -15.263,-31.37299 -19.50299,-39.004 1.69501,-27.98099 21.198,11.02298 41.54898,19.50198 16.10999,-11.02301 -19.50101,-22.04599 19.50201,-27.982 26.28601,-30.525 16.11099,2.54401 -68.681,-44.94101 -77.16001,-44.94101 -9.328,1.69602 -55.11599,58.50702 -58.50702,65.29102 z"
         id="path4434" />
      <path
         style="fill:#ff0000;fill-rule:evenodd;stroke:#000000;stroke-width:10;stroke-linejoin:round"
         inkscape:connector-curvature="0"
         d="M 17.80632,31.099018 C 96.663322,32.79472 295.92432,65.015625 372.2373,260.88571 345.95132,265.97372 281.51031,328.71973 271.33533,363.48373 77.161322,264.27771 22.04592,107.41172 17.806319,31.099018 Z"
         id="path4436" />
      <path
         style="fill:#7f0000;fill-rule:evenodd;stroke:#000000;stroke-width:10;stroke-linejoin:round"
         inkscape:connector-curvature="0"
         d="m 163.64932,292.25873 c 0,0 3.39099,86.488 3.39099,87.336 0,0.84799 104.29502,48.332 110.23002,50.876 l -5.08701,-67.83401 c -9.327,0.84799 -92.424,-52.57098 -108.534,-70.37799 z"
         id="path4438" />
      <path
         style="fill:#7f0000;fill-rule:evenodd;stroke:#000000;stroke-width:10;stroke-linejoin:round"
         inkscape:connector-curvature="0"
         d="m 304.73349,151.3528 c 0,0 85.53098,3.82004 86.37869,3.84088 0.84775,0.0208 45.7544,105.45125 48.1518,111.44698 l -67.68854,-6.75248 C 362.47681,226.84261 324.68262,171.28806 304.73349,151.3528 Z"
         id="path4440" />
      <path
         style="fill:#7f0000;fill-rule:evenodd;stroke:#000000;stroke-width:10;stroke-linejoin:round"
         inkscape:connector-curvature="0"
         d="m 235.31677,210.16905 c 0,0 14.25998,34.12261 16.66716,39.68585 2.95384,3.74834 77.58904,64.65636 83.06761,68.07418 l -3.17886,-21.68073 c -7.99423,-7.69864 -76.80339,-68.01597 -96.55591,-86.0793 z"
         id="path4442" />
      <path
         style="fill:#7f0000;fill-rule:evenodd;stroke:#000000;stroke-width:10;stroke-linejoin:round"
         inkscape:connector-curvature="0"
         d="m 232.63654,209.39949 -16.76851,24.28023 20.64479,35.73391 85.75397,67.74439 12.3876,-18.54547 -81.99136,-69.24004 -20.02649,-39.97302 z"
         id="path4444" />
      <path
         style="fill:#bfbfbf;fill-rule:evenodd;stroke:#000000;stroke-width:12.5;stroke-linejoin:round"
         inkscape:connector-curvature="0"
         d="m 124.645,131.15401 c -28.829799,39.00399 30.52401,87.336 58.506,52.571 33.91699,-42.39601 -24.589,-83.09601 -58.506,-52.571 z"
         id="path4446" />
      <path
         style="fill:#aeffff;fill-rule:evenodd;stroke:#000000;stroke-width:10;stroke-linejoin:round"
         inkscape:connector-curvature="0"
         d="m 132.276,135.393 c 21.198,-20.35 70.377,4.23999 48.332,40.70099 C 156.01801,207.466 105.991,167.615 132.276,135.393 Z"
         id="path4448" />
      <path
         style="fill:#ffffff;fill-opacity:0.75;fill-rule:evenodd;stroke-width:12.5;stroke-linejoin:round"
         inkscape:connector-curvature="0"
         d="m 148.386,134.502 c -6.86088,4.73755 -24.90051,19.62388 -10.175,37.352 12.71899,3.392 30.52499,-35.656 10.175,-37.352 z"
         id="path4450" />
      <title
         id="title4452">Layer 1</title>
    </g>
    <g
       transform="matrix(0.02330081,-0.10673346,0.10673346,0.02330081,21.167911,748.90187)"
       id="g4454"
       style="opacity:0.799">
      <path
         style="fill:#ff4000;fill-rule:evenodd;stroke-width:3.75"
         inkscape:connector-curvature="0"
         d="m 271.33505,360.75732 c 0,0 12.77112,37.85779 27.2442,69.69309 14.47406,31.83633 40.01633,47.32327 43.42224,47.32327 3.40488,0 6.8108,-18.06839 5.95932,-28.39337 -0.8515,-10.32492 -24.69076,-30.97583 16.17701,1.72 40.86682,32.6958 69.81393,46.46271 67.25949,35.27731 4.25741,-27.53384 -43.42121,-85.181 -12.77011,-74.85607 30.65008,10.32492 82.58505,34.41677 50.23202,-3.44199 -32.35306,-37.85779 -65.55755,-55.06668 -37.46091,-54.20618 28.09571,0.86048 55.33988,13.76694 41.71827,-11.18545 -13.62256,-24.95236 -79.16007,-63.75791 -107.25571,-80.1063 -22.13638,11.18546 -65.57764,40.52753 -94.52582,98.17569 z"
         id="path4456" />
      <path
         style="fill:#ffff33;fill-opacity:0.696296;fill-rule:evenodd;stroke-width:12.5;stroke-linejoin:round"
         inkscape:connector-curvature="0"
         d="m 284.05399,339.74301 c 0,0 9.32702,44.94 19.50201,58.50598 10.17499,13.56702 12.71899,11.871 15.263,-6.78299 2.54401,-18.65399 -15.263,-37.30899 15.26199,-16.95801 30.526,20.35001 56.81101,45.78702 41.54901,14.41401 -15.263,-31.37299 -19.50299,-39.004 1.69501,-27.98099 21.198,11.02298 41.54898,19.50198 16.10999,-11.02301 -19.50101,-22.04599 19.50201,-27.982 26.28601,-30.525 16.11099,2.54401 -68.681,-44.94101 -77.16001,-44.94101 -9.328,1.69602 -55.11599,58.50702 -58.50702,65.29102 z"
         id="path4458" />
      <path
         style="fill:#ff0000;fill-rule:evenodd;stroke:#000000;stroke-width:10;stroke-linejoin:round"
         inkscape:connector-curvature="0"
         d="M 17.80632,31.099018 C 96.663322,32.79472 295.92432,65.015625 372.2373,260.88571 345.95132,265.97372 281.51031,328.71973 271.33533,363.48373 77.161322,264.27771 22.04592,107.41172 17.806319,31.099018 Z"
         id="path4460" />
      <path
         style="fill:#7f0000;fill-rule:evenodd;stroke:#000000;stroke-width:10;stroke-linejoin:round"
         inkscape:connector-curvature="0"
         d="m 163.64932,292.25873 c 0,0 3.39099,86.488 3.39099,87.336 0,0.84799 104.29502,48.332 110.23002,50.876 l -5.08701,-67.83401 c -9.327,0.84799 -92.424,-52.57098 -108.534,-70.37799 z"
         id="path4462" />
      <path
         style="fill:#7f0000;fill-rule:evenodd;stroke:#000000;stroke-width:10;stroke-linejoin:round"
         inkscape:connector-curvature="0"
         d="m 304.73349,151.3528 c 0,0 85.53098,3.82004 86.37869,3.84088 0.84775,0.0208 45.7544,105.45125 48.1518,111.44698 l -67.68854,-6.75248 C 362.47681,226.84261 324.68262,171.28806 304.73349,151.3528 Z"
         id="path4464" />
      <path
         style="fill:#7f0000;fill-rule:evenodd;stroke:#000000;stroke-width:10;stroke-linejoin:round"
         inkscape:connector-curvature="0"
         d="m 235.31677,210.16905 c 0,0 14.25998,34.12261 16.66716,39.68585 2.95384,3.74834 77.58904,64.65636 83.06761,68.07418 l -3.17886,-21.68073 c -7.99423,-7.69864 -76.80339,-68.01597 -96.55591,-86.0793 z"
         id="path4466" />
      <path
         style="fill:#7f0000;fill-rule:evenodd;stroke:#000000;stroke-width:10;stroke-linejoin:round"
         inkscape:connector-curvature="0"
         d="m 232.63654,209.39949 -16.76851,24.28023 20.64479,35.73391 85.75397,67.74439 12.3876,-18.54547 -81.99136,-69.24004 -20.02649,-39.97302 z"
         id="path4468" />
      <path
         style="fill:#bfbfbf;fill-rule:evenodd;stroke:#000000;stroke-width:12.5;stroke-linejoin:round"
         inkscape:connector-curvature="0"
         d="m 124.645,131.15401 c -28.829799,39.00399 30.52401,87.336 58.506,52.571 33.91699,-42.39601 -24.589,-83.09601 -58.506,-52.571 z"
         id="path4470" />
      <path
         style="fill:#aeffff;fill-rule:evenodd;stroke:#000000;stroke-width:10;stroke-linejoin:round"
         inkscape:connector-curvature="0"
         d="m 132.276,135.393 c 21.198,-20.35 70.377,4.23999 48.332,40.70099 C 156.01801,207.466 105.991,167.615 132.276,135.393 Z"
         id="path4472" />
      <path
         style="fill:#ffffff;fill-opacity:0.75;fill-rule:evenodd;stroke-width:12.5;stroke-linejoin:round"
         inkscape:connector-curvature="0"
         d="m 148.386,134.502 c -6.86088,4.73755 -24.90051,19.62388 -10.175,37.352 12.71899,3.392 30.52499,-35.656 10.175,-37.352 z"
         id="path4474" />
      <title
         id="title4476">Layer 1</title>
    </g>
    <g
       transform="matrix(-0.07602637,0.0784535,-0.0784535,-0.07602637,154.59899,742.88186)"
       id="g4478"
       style="opacity:0.867">
      <path
         style="fill:#ff4000;fill-rule:evenodd;stroke-width:3.75"
         inkscape:connector-curvature="0"
         d="m 271.33505,360.75732 c 0,0 12.77112,37.85779 27.2442,69.69309 14.47406,31.83633 40.01633,47.32327 43.42224,47.32327 3.40488,0 6.8108,-18.06839 5.95932,-28.39337 -0.8515,-10.32492 -24.69076,-30.97583 16.17701,1.72 40.86682,32.6958 69.81393,46.46271 67.25949,35.27731 4.25741,-27.53384 -43.42121,-85.181 -12.77011,-74.85607 30.65008,10.32492 82.58505,34.41677 50.23202,-3.44199 -32.35306,-37.85779 -65.55755,-55.06668 -37.46091,-54.20618 28.09571,0.86048 55.33988,13.76694 41.71827,-11.18545 -13.62256,-24.95236 -79.16007,-63.75791 -107.25571,-80.1063 -22.13638,11.18546 -65.57764,40.52753 -94.52582,98.17569 z"
         id="path4480" />
      <path
         style="fill:#ffff33;fill-opacity:0.696296;fill-rule:evenodd;stroke-width:12.5;stroke-linejoin:round"
         inkscape:connector-curvature="0"
         d="m 284.05399,339.74301 c 0,0 9.32702,44.94 19.50201,58.50598 10.17499,13.56702 12.71899,11.871 15.263,-6.78299 2.54401,-18.65399 -15.263,-37.30899 15.26199,-16.95801 30.526,20.35001 56.81101,45.78702 41.54901,14.41401 -15.263,-31.37299 -19.50299,-39.004 1.69501,-27.98099 21.198,11.02298 41.54898,19.50198 16.10999,-11.02301 -19.50101,-22.04599 19.50201,-27.982 26.28601,-30.525 16.11099,2.54401 -68.681,-44.94101 -77.16001,-44.94101 -9.328,1.69602 -55.11599,58.50702 -58.50702,65.29102 z"
         id="path4482" />
      <path
         style="fill:#ff0000;fill-rule:evenodd;stroke:#000000;stroke-width:10;stroke-linejoin:round"
         inkscape:connector-curvature="0"
         d="M 17.80632,31.099018 C 96.663322,32.79472 295.92432,65.015625 372.2373,260.88571 345.95132,265.97372 281.51031,328.71973 271.33533,363.48373 77.161322,264.27771 22.04592,107.41172 17.806319,31.099018 Z"
         id="path4484" />
      <path
         style="fill:#7f0000;fill-rule:evenodd;stroke:#000000;stroke-width:10;stroke-linejoin:round"
         inkscape:connector-curvature="0"
         d="m 163.64932,292.25873 c 0,0 3.39099,86.488 3.39099,87.336 0,0.84799 104.29502,48.332 110.23002,50.876 l -5.08701,-67.83401 c -9.327,0.84799 -92.424,-52.57098 -108.534,-70.37799 z"
         id="path4486" />
      <path
         style="fill:#7f0000;fill-rule:evenodd;stroke:#000000;stroke-width:10;stroke-linejoin:round"
         inkscape:connector-curvature="0"
         d="m 304.73349,151.3528 c 0,0 85.53098,3.82004 86.37869,3.84088 0.84775,0.0208 45.7544,105.45125 48.1518,111.44698 l -67.68854,-6.75248 C 362.47681,226.84261 324.68262,171.28806 304.73349,151.3528 Z"
         id="path4488" />
      <path
         style="fill:#7f0000;fill-rule:evenodd;stroke:#000000;stroke-width:10;stroke-linejoin:round"
         inkscape:connector-curvature="0"
         d="m 235.31677,210.16905 c 0,0 14.25998,34.12261 16.66716,39.68585 2.95384,3.74834 77.58904,64.65636 83.06761,68.07418 l -3.17886,-21.68073 c -7.99423,-7.69864 -76.80339,-68.01597 -96.55591,-86.0793 z"
         id="path4490" />
      <path
         style="fill:#7f0000;fill-rule:evenodd;stroke:#000000;stroke-width:10;stroke-linejoin:round"
         inkscape:connector-curvature="0"
         d="m 232.63654,209.39949 -16.76851,24.28023 20.64479,35.73391 85.75397,67.74439 12.3876,-18.54547 -81.99136,-69.24004 -20.02649,-39.97302 z"
         id="path4492" />
      <path
         style="fill:#bfbfbf;fill-rule:evenodd;stroke:#000000;stroke-width:12.5;stroke-linejoin:round"
         inkscape:connector-curvature="0"
         d="m 124.645,131.15401 c -28.829799,39.00399 30.52401,87.336 58.506,52.571 33.91699,-42.39601 -24.589,-83.09601 -58.506,-52.571 z"
         id="path4494" />
      <path
         style="fill:#aeffff;fill-rule:evenodd;stroke:#000000;stroke-width:10;stroke-linejoin:round"
         inkscape:connector-curvature="0"
         d="m 132.276,135.393 c 21.198,-20.35 70.377,4.23999 48.332,40.70099 C 156.01801,207.466 105.991,167.615 132.276,135.393 Z"
         id="path4496" />
      <path
         style="fill:#ffffff;fill-opacity:0.75;fill-rule:evenodd;stroke-width:12.5;stroke-linejoin:round"
         inkscape:connector-curvature="0"
         d="m 148.386,134.502 c -6.86088,4.73755 -24.90051,19.62388 -10.175,37.352 12.71899,3.392 30.52499,-35.656 10.175,-37.352 z"
         id="path4498" />
      <title
         id="title4500">Layer 1</title>
    </g>
    <g
       transform="matrix(-0.07602637,0.0784535,-0.0784535,-0.07602637,229.35028,742.88186)"
       id="g4502"
       style="opacity:0.917">
      <path
         style="fill:#ff4000;fill-rule:evenodd;stroke-width:3.75"
         inkscape:connector-curvature="0"
         d="m 271.33505,360.75732 c 0,0 12.77112,37.85779 27.2442,69.69309 14.47406,31.83633 40.01633,47.32327 43.42224,47.32327 3.40488,0 6.8108,-18.06839 5.95932,-28.39337 -0.8515,-10.32492 -24.69076,-30.97583 16.17701,1.72 40.86682,32.6958 69.81393,46.46271 67.25949,35.27731 4.25741,-27.53384 -43.42121,-85.181 -12.77011,-74.85607 30.65008,10.32492 82.58505,34.41677 50.23202,-3.44199 -32.35306,-37.85779 -65.55755,-55.06668 -37.46091,-54.20618 28.09571,0.86048 55.33988,13.76694 41.71827,-11.18545 -13.62256,-24.95236 -79.16007,-63.75791 -107.25571,-80.1063 -22.13638,11.18546 -65.57764,40.52753 -94.52582,98.17569 z"
         id="path4504" />
      <path
         style="fill:#ffff33;fill-opacity:0.696296;fill-rule:evenodd;stroke-width:12.5;stroke-linejoin:round"
         inkscape:connector-curvature="0"
         d="m 284.05399,339.74301 c 0,0 9.32702,44.94 19.50201,58.50598 10.17499,13.56702 12.71899,11.871 15.263,-6.78299 2.54401,-18.65399 -15.263,-37.30899 15.26199,-16.95801 30.526,20.35001 56.81101,45.78702 41.54901,14.41401 -15.263,-31.37299 -19.50299,-39.004 1.69501,-27.98099 21.198,11.02298 41.54898,19.50198 16.10999,-11.02301 -19.50101,-22.04599 19.50201,-27.982 26.28601,-30.525 16.11099,2.54401 -68.681,-44.94101 -77.16001,-44.94101 -9.328,1.69602 -55.11599,58.50702 -58.50702,65.29102 z"
         id="path4506" />
      <path
         style="fill:#ff0000;fill-rule:evenodd;stroke:#000000;stroke-width:10;stroke-linejoin:round"
         inkscape:connector-curvature="0"
         d="M 17.80632,31.099018 C 96.663322,32.79472 295.92432,65.015625 372.2373,260.88571 345.95132,265.97372 281.51031,328.71973 271.33533,363.48373 77.161322,264.27771 22.04592,107.41172 17.806319,31.099018 Z"
         id="path4508" />
      <path
         style="fill:#7f0000;fill-rule:evenodd;stroke:#000000;stroke-width:10;stroke-linejoin:round"
         inkscape:connector-curvature="0"
         d="m 163.64932,292.25873 c 0,0 3.39099,86.488 3.39099,87.336 0,0.84799 104.29502,48.332 110.23002,50.876 l -5.08701,-67.83401 c -9.327,0.84799 -92.424,-52.57098 -108.534,-70.37799 z"
         id="path4510" />
      <path
         style="fill:#7f0000;fill-rule:evenodd;stroke:#000000;stroke-width:10;stroke-linejoin:round"
         inkscape:connector-curvature="0"
         d="m 304.73349,151.3528 c 0,0 85.53098,3.82004 86.37869,3.84088 0.84775,0.0208 45.7544,105.45125 48.1518,111.44698 l -67.68854,-6.75248 C 362.47681,226.84261 324.68262,171.28806 304.73349,151.3528 Z"
         id="path4512" />
      <path
         style="fill:#7f0000;fill-rule:evenodd;stroke:#000000;stroke-width:10;stroke-linejoin:round"
         inkscape:connector-curvature="0"
         d="m 235.31677,210.16905 c 0,0 14.25998,34.12261 16.66716,39.68585 2.95384,3.74834 77.58904,64.65636 83.06761,68.07418 l -3.17886,-21.68073 c -7.99423,-7.69864 -76.80339,-68.01597 -96.55591,-86.0793 z"
         id="path4514" />
      <path
         style="fill:#7f0000;fill-rule:evenodd;stroke:#000000;stroke-width:10;stroke-linejoin:round"
         inkscape:connector-curvature="0"
         d="m 232.63654,209.39949 -16.76851,24.28023 20.64479,35.73391 85.75397,67.74439 12.3876,-18.54547 -81.99136,-69.24004 -20.02649,-39.97302 z"
         id="path4516" />
      <path
         style="fill:#bfbfbf;fill-rule:evenodd;stroke:#000000;stroke-width:12.5;stroke-linejoin:round"
         inkscape:connector-curvature="0"
         d="m 124.645,131.15401 c -28.829799,39.00399 30.52401,87.336 58.506,52.571 33.91699,-42.39601 -24.589,-83.09601 -58.506,-52.571 z"
         id="path4518" />
      <path
         style="fill:#aeffff;fill-rule:evenodd;stroke:#000000;stroke-width:10;stroke-linejoin:round"
         inkscape:connector-curvature="0"
         d="m 132.276,135.393 c 21.198,-20.35 70.377,4.23999 48.332,40.70099 C 156.01801,207.466 105.991,167.615 132.276,135.393 Z"
         id="path4520" />
      <path
         style="fill:#ffffff;fill-opacity:0.75;fill-rule:evenodd;stroke-width:12.5;stroke-linejoin:round"
         inkscape:connector-curvature="0"
         d="m 148.386,134.502 c -6.86088,4.73755 -24.90051,19.62388 -10.175,37.352 12.71899,3.392 30.52499,-35.656 10.175,-37.352 z"
         id="path4522" />
      <title
         id="title4524">Layer 1</title>
    </g>
    <g
       transform="matrix(-0.07602637,0.0784535,-0.0784535,-0.07602637,302.08126,742.88186)"
       id="g4526">
      <path
         style="fill:#ff4000;fill-rule:evenodd;stroke-width:3.75"
         inkscape:connector-curvature="0"
         d="m 271.33505,360.75732 c 0,0 12.77112,37.85779 27.2442,69.69309 14.47406,31.83633 40.01633,47.32327 43.42224,47.32327 3.40488,0 6.8108,-18.06839 5.95932,-28.39337 -0.8515,-10.32492 -24.69076,-30.97583 16.17701,1.72 40.86682,32.6958 69.81393,46.46271 67.25949,35.27731 4.25741,-27.53384 -43.42121,-85.181 -12.77011,-74.85607 30.65008,10.32492 82.58505,34.41677 50.23202,-3.44199 -32.35306,-37.85779 -65.55755,-55.06668 -37.46091,-54.20618 28.09571,0.86048 55.33988,13.76694 41.71827,-11.18545 -13.62256,-24.95236 -79.16007,-63.75791 -107.25571,-80.1063 -22.13638,11.18546 -65.57764,40.52753 -94.52582,98.17569 z"
         id="path4528" />
      <path
         style="fill:#ffff33;fill-opacity:0.696296;fill-rule:evenodd;stroke-width:12.5;stroke-linejoin:round"
         inkscape:connector-curvature="0"
         d="m 284.05399,339.74301 c 0,0 9.32702,44.94 19.50201,58.50598 10.17499,13.56702 12.71899,11.871 15.263,-6.78299 2.54401,-18.65399 -15.263,-37.30899 15.26199,-16.95801 30.526,20.35001 56.81101,45.78702 41.54901,14.41401 -15.263,-31.37299 -19.50299,-39.004 1.69501,-27.98099 21.198,11.02298 41.54898,19.50198 16.10999,-11.02301 -19.50101,-22.04599 19.50201,-27.982 26.28601,-30.525 16.11099,2.54401 -68.681,-44.94101 -77.16001,-44.94101 -9.328,1.69602 -55.11599,58.50702 -58.50702,65.29102 z"
         id="path4530" />
      <path
         style="fill:#ff0000;fill-rule:evenodd;stroke:#000000;stroke-width:10;stroke-linejoin:round"
         inkscape:connector-curvature="0"
         d="M 17.80632,31.099018 C 96.663322,32.79472 295.92432,65.015625 372.2373,260.88571 345.95132,265.97372 281.51031,328.71973 271.33533,363.48373 77.161322,264.27771 22.04592,107.41172 17.806319,31.099018 Z"
         id="path4532" />
      <path
         style="fill:#7f0000;fill-rule:evenodd;stroke:#000000;stroke-width:10;stroke-linejoin:round"
         inkscape:connector-curvature="0"
         d="m 163.64932,292.25873 c 0,0 3.39099,86.488 3.39099,87.336 0,0.84799 104.29502,48.332 110.23002,50.876 l -5.08701,-67.83401 c -9.327,0.84799 -92.424,-52.57098 -108.534,-70.37799 z"
         id="path4534" />
      <path
         style="fill:#7f0000;fill-rule:evenodd;stroke:#000000;stroke-width:10;stroke-linejoin:round"
         inkscape:connector-curvature="0"
         d="m 304.73349,151.3528 c 0,0 85.53098,3.82004 86.37869,3.84088 0.84775,0.0208 45.7544,105.45125 48.1518,111.44698 l -67.68854,-6.75248 C 362.47681,226.84261 324.68262,171.28806 304.73349,151.3528 Z"
         id="path4536" />
      <path
         style="fill:#7f0000;fill-rule:evenodd;stroke:#000000;stroke-width:10;stroke-linejoin:round"
         inkscape:connector-curvature="0"
         d="m 235.31677,210.16905 c 0,0 14.25998,34.12261 16.66716,39.68585 2.95384,3.74834 77.58904,64.65636 83.06761,68.07418 l -3.17886,-21.68073 c -7.99423,-7.69864 -76.80339,-68.01597 -96.55591,-86.0793 z"
         id="path4538" />
      <path
         style="fill:#7f0000;fill-rule:evenodd;stroke:#000000;stroke-width:10;stroke-linejoin:round"
         inkscape:connector-curvature="0"
         d="m 232.63654,209.39949 -16.76851,24.28023 20.64479,35.73391 85.75397,67.74439 12.3876,-18.54547 -81.99136,-69.24004 -20.02649,-39.97302 z"
         id="path4540" />
      <path
         style="fill:#bfbfbf;fill-rule:evenodd;stroke:#000000;stroke-width:12.5;stroke-linejoin:round"
         inkscape:connector-curvature="0"
         d="m 124.645,131.15401 c -28.829799,39.00399 30.52401,87.336 58.506,52.571 33.91699,-42.39601 -24.589,-83.09601 -58.506,-52.571 z"
         id="path4542" />
      <path
         style="fill:#aeffff;fill-rule:evenodd;stroke:#000000;stroke-width:10;stroke-linejoin:round"
         inkscape:connector-curvature="0"
         d="m 132.276,135.393 c 21.198,-20.35 70.377,4.23999 48.332,40.70099 C 156.01801,207.466 105.991,167.615 132.276,135.393 Z"
         id="path4544" />
      <path
         style="fill:#ffffff;fill-opacity:0.75;fill-rule:evenodd;stroke-width:12.5;stroke-linejoin:round"
         inkscape:connector-curvature="0"
         d="m 148.386,134.502 c -6.86088,4.73755 -24.90051,19.62388 -10.175,37.352 12.71899,3.392 30.52499,-35.656 10.175,-37.352 z"
         id="path4546" />
      <title
         id="title4548">Layer 1</title>
    </g>
    <path
       style="fill:#f2f2f2;fill-rule:evenodd;stroke:#f9f9f9;stroke-width:4;stroke-linecap:butt;stroke-linejoin:miter;stroke-miterlimit:4;stroke-dasharray:none;stroke-opacity:1;marker-start:url(#Arrow2Mstart);marker-end:url(#Arrow2Mend)"
       d="M 12.7433,1033.9764 781.58323,465.86092"
       id="path4569"
       inkscape:connector-curvature="0"
       sodipodi:nodetypes="cc" />
    <text
       xml:space="preserve"
       style="font-style:normal;font-weight:normal;font-size:40px;line-height:125%;font-family:sans-serif;letter-spacing:0px;word-spacing:0px;fill:#000000;fill-opacity:1;stroke:none;stroke-width:1px;stroke-linecap:butt;stroke-linejoin:miter;stroke-opacity:1"
       x="383.57141"
       y="809.505"
       id="text5131"
       sodipodi:linespacing="125%"><tspan
         sodipodi:role="line"
         id="tspan5133"
         x="383.57141"
         y="809.505"
         style="fill:#f9f9f9;stroke:none">~70cm</tspan></text>
  </g>
</svg>
